<svg version="1.1" xmlns="http://www.w3.org/2000/svg" viewBox="0 0 24 24" xml:space="preserve"
     class="common_root common_large common_fillBased">
    <title>Heart</title>
    <path d="M17.059,3.284c-2.051,0-3.777,0.83-5.059,2.415c-1.281-1.585-3.008-2.415-5.059-2.415 C3.443,3.284,1,5.97,1,9.817c0,4.398,2.968,5.538,5.667,6.574c2.575,1.02,4.162,1.773,4.335,4.325h1.995 c0.175-2.552,1.762-3.306,4.416-4.355C20.032,15.355,23,14.215,23,9.817C23,5.97,20.557,3.284,17.059,3.284z M16.698,14.492 l-0.101,0.039c-1.604,0.634-3.472,1.374-4.598,3.002c-1.126-1.628-2.995-2.368-4.6-3.003l-0.097-0.037C4.555,13.438,3,12.7,3,9.817 c0-2.753,1.547-4.533,3.941-4.533c1.744,0,3.061,0.793,4.023,2.425l0.093,0.263h1.884l0.094-0.262 c0.963-1.632,2.279-2.426,4.023-2.426C19.453,5.284,21,7.063,21,9.817C21,12.7,19.446,13.438,16.698,14.492z"></path>
</svg>