<svg xmlns="http://www.w3.org/2000/svg" viewBox="5 -2 349 86">
  <title>MONA Logo</title>
  <path style="fill:#aa9688" d="M15 10.8c0-4.6-1.3-7.1-7.2-7.1H5.1V1.9H27L50.7 62 74 2h20.4v1.8h-2.8c-4.8 0-6 3.4-6 7v61.6c0 5.3.3 7.4 5.4 7.4h3.4v1.8H65.2v-1.8h2.4c4.6 0 6.4-1.7 6.4-6.6V8h-.2L46.2 79.7h-1l-28-70.4h-.3v61c0 6.4 1 9.4 7 9.4h3.4v1.8H5.1v-1.8h3c6 0 7-2.7 7-9.4V10.8zM141.6 0c19 0 35.7 18.5 35.7 41.7 0 23.1-16.6 41.6-35.7 41.6-19.2 0-35.8-18.5-35.8-41.6 0-23.2 16.6-41.6 35.8-41.6zm0 81.5c20 0 22.8-25 22.8-39.8 0-14.8-2.7-39.8-22.8-39.8-20.2 0-22.9 25-22.9 39.8 0 14.8 2.7 39.8 22.9 39.8zM198.5 10.9c0-5-1.4-7-7.6-7h-2.5v-2h10C206 2 207.7.3 210-2v21.4c4.9-9 13.8-19.2 28.4-19.2 20.2 0 21.8 10.1 21.8 21.3V68c0 10.2 1.6 11.6 6.6 11.6h3.2v1.9h-31.7v-2h2.6c6.3 0 7.5-2 7.5-11.5V16.8c0-10.3-6.2-13.7-12.2-13.7-15.9 0-22.9 15.8-26.2 22.2V73c0 4.6 1 6.7 6.8 6.7h3.1v1.9h-31.4v-2h2.8c6.6 0 7.3-2 7.3-7.2V10.9zM322 55.7h-25.2l-4.9 14.2c-.8 2.3-1.7 5-1.7 7 0 1.5 1.4 2.8 5.2 2.8h6.1v1.8h-24.3v-1.8h3.8c3.6 0 5.2-.4 7.4-6.7l25-71.6 1-.4c.7-.4.7-1 .7-1s26 72.8 27.4 76c1 2.5 2.2 3.7 8 3.7h3v1.8h-32.2v-1.8h3c6 0 5.4-2.5 4.6-4.7L322 55.7zm-12.7-36h-.2l-11.6 34.2h24l-12.2-34.3z"/>
</svg>